<?xml version="1.0" encoding="UTF-8" standalone="no"?>
<!-- Generator: Adobe Illustrator 15.0.0, SVG Export Plug-In . SVG Version: 6.00 Build 0)  -->

<svg
   xmlns:dc="http://purl.org/dc/elements/1.1/"
   xmlns:cc="http://creativecommons.org/ns#"
   xmlns:rdf="http://www.w3.org/1999/02/22-rdf-syntax-ns#"
   xmlns:svg="http://www.w3.org/2000/svg"
   xmlns="http://www.w3.org/2000/svg"
   xmlns:sodipodi="http://sodipodi.sourceforge.net/DTD/sodipodi-0.dtd"
   xmlns:inkscape="http://www.inkscape.org/namespaces/inkscape"
   version="1.1"
   id="Ebene_1"
   x="0px"
   y="0px"
   width="234"
   height="226.73482"
   viewBox="0 0 234 226.73482"
   enable-background="new 0 0 566.93 566.93"
   xml:space="preserve"
   sodipodi:docname="logo.svg"
   inkscape:version="0.92.4 (unknown)"><metadata
   id="metadata121"><rdf:RDF><cc:Work
       rdf:about=""><dc:format>image/svg+xml</dc:format><dc:type
         rdf:resource="http://purl.org/dc/dcmitype/StillImage" /><dc:title></dc:title></cc:Work></rdf:RDF></metadata><defs
   id="defs119" /><sodipodi:namedview
   pagecolor="#ffffff"
   bordercolor="#666666"
   borderopacity="1"
   objecttolerance="10"
   gridtolerance="10"
   guidetolerance="10"
   inkscape:pageopacity="0"
   inkscape:pageshadow="2"
   inkscape:window-width="2492"
   inkscape:window-height="1328"
   id="namedview117"
   showgrid="false"
   fit-margin-top="2"
   fit-margin-left="2"
   fit-margin-right="2"
   fit-margin-bottom="2"
   inkscape:zoom="1.6651086"
   inkscape:cx="408.646"
   inkscape:cy="151.32"
   inkscape:window-x="0"
   inkscape:window-y="38"
   inkscape:window-maximized="1"
   inkscape:current-layer="Ebene_1" />
<g
   id="g114"
   transform="matrix(0.40667057,0,0,0.40667057,1.4463803,-0.03319345)">
	<g
   id="g112">
		<g
   id="g110">
			<linearGradient
   id="SVGID_1_"
   gradientUnits="userSpaceOnUse"
   x1="284.1279"
   y1="577.05762"
   x2="284.1279"
   y2="-21.2297">
				<stop
   offset="0"
   style="stop-color:#682165"
   id="stop2" />
				<stop
   offset="0.1476"
   style="stop-color:#901760"
   id="stop4" />
				<stop
   offset="0.3043"
   style="stop-color:#B30E5C"
   id="stop6" />
				<stop
   offset="0.4325"
   style="stop-color:#C9095A"
   id="stop8" />
				<stop
   offset="0.5152"
   style="stop-color:#D10759"
   id="stop10" />
				<stop
   offset="0.5658"
   style="stop-color:#CF2B56"
   id="stop12" />
				<stop
   offset="0.6298"
   style="stop-color:#CD5253"
   id="stop14" />
				<stop
   offset="0.6962"
   style="stop-color:#CC7250"
   id="stop16" />
				<stop
   offset="0.7646"
   style="stop-color:#CB8B4E"
   id="stop18" />
				<stop
   offset="0.8358"
   style="stop-color:#CA9D4C"
   id="stop20" />
				<stop
   offset="0.9117"
   style="stop-color:#C9A84B"
   id="stop22" />
				<stop
   offset="1"
   style="stop-color:#C9AB4B"
   id="stop24" />
			</linearGradient>
			<path
   d="m 258.62,55.071 c -10.241,-14.088 -7.109,-33.813 6.971,-44.049 14.094,-10.235 33.812,-7.108 44.042,6.977 10.244,14.09 7.119,33.81 -6.975,44.04 -14.087,10.239 -33.804,7.117 -44.038,-6.968 z"
   id="path27"
   style="fill:url(#SVGID_1_)"
   inkscape:connector-curvature="0" />
			<linearGradient
   id="SVGID_2_"
   gradientUnits="userSpaceOnUse"
   x1="401.87991"
   y1="577.06049"
   x2="401.87991"
   y2="-21.231501">
				<stop
   offset="0"
   style="stop-color:#682165"
   id="stop29" />
				<stop
   offset="0.1476"
   style="stop-color:#901760"
   id="stop31" />
				<stop
   offset="0.3043"
   style="stop-color:#B30E5C"
   id="stop33" />
				<stop
   offset="0.4325"
   style="stop-color:#C9095A"
   id="stop35" />
				<stop
   offset="0.5152"
   style="stop-color:#D10759"
   id="stop37" />
				<stop
   offset="0.5658"
   style="stop-color:#CF2B56"
   id="stop39" />
				<stop
   offset="0.6298"
   style="stop-color:#CD5253"
   id="stop41" />
				<stop
   offset="0.6962"
   style="stop-color:#CC7250"
   id="stop43" />
				<stop
   offset="0.7646"
   style="stop-color:#CB8B4E"
   id="stop45" />
				<stop
   offset="0.8358"
   style="stop-color:#CA9D4C"
   id="stop47" />
				<stop
   offset="0.9117"
   style="stop-color:#C9A84B"
   id="stop49" />
				<stop
   offset="1"
   style="stop-color:#C9AB4B"
   id="stop51" />
			</linearGradient>
			<path
   d="m 367.866,146.8 c -13.652,-18.787 -9.488,-45.08 9.303,-58.728 18.783,-13.654 45.077,-9.487 58.726,9.299 13.648,18.786 9.488,45.078 -9.303,58.726 -18.783,13.654 -45.081,9.488 -58.726,-9.297 z"
   id="path54"
   style="fill:url(#SVGID_2_)"
   inkscape:connector-curvature="0" />
			<linearGradient
   id="SVGID_3_"
   gradientUnits="userSpaceOnUse"
   x1="166.3931"
   y1="577.06049"
   x2="166.39301"
   y2="-21.230499">
				<stop
   offset="0"
   style="stop-color:#682165"
   id="stop56" />
				<stop
   offset="0.1476"
   style="stop-color:#901760"
   id="stop58" />
				<stop
   offset="0.3043"
   style="stop-color:#B30E5C"
   id="stop60" />
				<stop
   offset="0.4325"
   style="stop-color:#C9095A"
   id="stop62" />
				<stop
   offset="0.5152"
   style="stop-color:#D10759"
   id="stop64" />
				<stop
   offset="0.5658"
   style="stop-color:#CF2B56"
   id="stop66" />
				<stop
   offset="0.6298"
   style="stop-color:#CD5253"
   id="stop68" />
				<stop
   offset="0.6962"
   style="stop-color:#CC7250"
   id="stop70" />
				<stop
   offset="0.7646"
   style="stop-color:#CB8B4E"
   id="stop72" />
				<stop
   offset="0.8358"
   style="stop-color:#CA9D4C"
   id="stop74" />
				<stop
   offset="0.9117"
   style="stop-color:#C9A84B"
   id="stop76" />
				<stop
   offset="1"
   style="stop-color:#C9AB4B"
   id="stop78" />
			</linearGradient>
			<path
   d="m 132.379,146.783 c -13.648,-18.783 -9.48,-45.081 9.303,-58.731 18.787,-13.643 45.077,-9.48 58.719,9.306 13.655,18.787 9.487,45.08 -9.292,58.726 -18.787,13.651 -45.081,9.488 -58.73,-9.301 z"
   id="path81"
   style="fill:url(#SVGID_3_)"
   inkscape:connector-curvature="0" />
			<linearGradient
   id="SVGID_4_"
   gradientUnits="userSpaceOnUse"
   x1="284.14551"
   y1="577.05267"
   x2="284.14551"
   y2="-21.228701">
				<stop
   offset="0"
   style="stop-color:#682165"
   id="stop83" />
				<stop
   offset="0.1476"
   style="stop-color:#901760"
   id="stop85" />
				<stop
   offset="0.3043"
   style="stop-color:#B30E5C"
   id="stop87" />
				<stop
   offset="0.4325"
   style="stop-color:#C9095A"
   id="stop89" />
				<stop
   offset="0.5152"
   style="stop-color:#D10759"
   id="stop91" />
				<stop
   offset="0.5658"
   style="stop-color:#CF2B56"
   id="stop93" />
				<stop
   offset="0.6298"
   style="stop-color:#CD5253"
   id="stop95" />
				<stop
   offset="0.6962"
   style="stop-color:#CC7250"
   id="stop97" />
				<stop
   offset="0.7646"
   style="stop-color:#CB8B4E"
   id="stop99" />
				<stop
   offset="0.8358"
   style="stop-color:#CA9D4C"
   id="stop101" />
				<stop
   offset="0.9117"
   style="stop-color:#C9A84B"
   id="stop103" />
				<stop
   offset="1"
   style="stop-color:#C9AB4B"
   id="stop105" />
			</linearGradient>
			<path
   d="m 557.895,179.831 c -15.351,-21.128 -44.933,-25.814 -66.069,-10.464 -21.134,15.354 -25.823,44.94 -10.462,66.075 2.792,3.838 6.062,7.123 9.661,9.857 2.383,3.505 3.792,7.728 3.788,12.276 0.004,9.553 -6.667,17.701 -15.209,20.663 l 0.376,0.065 c -12.472,-0.457 -25.175,3.049 -36.049,10.95 -25.827,18.766 -31.563,54.935 -12.787,80.754 0.699,0.964 1.467,1.84 2.213,2.745 3.117,4.7 4.968,10.313 4.968,16.368 -0.003,12.87 -8.194,23.799 -19.645,27.92 -9.734,1.586 -19.247,5.294 -27.862,11.262 l 0.011,-0.087 c -9.629,6.678 -21.314,10.596 -33.917,10.596 -12.576,0 -24.236,-3.889 -33.851,-10.53 l 0.007,0.021 c -22.777,-15.774 -53.739,-16.606 -77.698,-0.043 l -0.014,-0.044 c -9.629,6.678 -21.318,10.596 -33.924,10.596 -12.569,0 -24.237,-3.889 -33.848,-10.53 l -0.018,0.036 c -8.456,-5.859 -18.012,-9.72 -27.956,-11.335 -11.378,-4.157 -19.511,-15.042 -19.515,-27.861 0,-6.178 1.905,-11.907 5.138,-16.658 16.169,-19.844 17.737,-48.764 1.981,-70.44 -11.816,-16.256 -30.52,-24.534 -49.198,-23.77 l 0.264,-0.043 c -8.542,-2.966 -14.677,-11.081 -14.673,-20.634 -0.003,-4.621 1.438,-8.912 3.89,-12.446 l -0.33,0.17 C 97.67,229.806 102.103,200.692 86.93,179.81 71.576,158.684 41.997,153.996 20.86,169.347 -0.271,184.7 -4.96,214.272 10.405,235.417 c 9.039,12.439 23.013,19.124 37.292,19.428 4.048,1.419 7.717,4.034 10.425,7.764 5.613,7.728 5.425,17.897 0.257,25.313 l 0.246,-0.102 c -0.721,0.479 -1.459,0.898 -2.162,1.412 -25.831,18.766 -31.552,54.927 -12.787,80.754 8.05,11.074 19.308,18.425 31.57,21.757 5.519,1.926 10.531,5.497 14.221,10.581 7.626,10.494 7.376,24.291 0.376,34.38 -22.894,23.379 -26.33,60.511 -6.449,87.866 21.879,30.121 63.73,37.045 94.16,15.934 l 0.029,0.058 c 9.615,-6.642 21.279,-10.538 33.852,-10.53 12.598,0 24.288,3.918 33.92,10.596 l 0.021,-0.065 c 22.803,15.753 53.783,16.542 77.723,-0.079 l -0.039,0.079 c 9.614,-6.642 21.278,-10.53 33.848,-10.53 12.605,0 24.291,3.918 33.924,10.596 l -0.019,-0.108 c 23.198,16.078 54.913,16.687 79.041,-0.841 30.531,-22.176 37.307,-64.907 15.119,-95.427 -1.984,-2.73 -4.183,-5.2 -6.472,-7.547 l 0.098,0.044 c -7.028,-10.089 -7.285,-23.915 0.352,-34.424 3.69,-5.084 8.706,-8.655 14.229,-10.581 h -0.033 c 6.559,-1.797 12.917,-4.715 18.74,-8.945 25.838,-18.765 31.559,-54.927 12.794,-80.746 -4.233,-5.827 -9.379,-10.57 -15.064,-14.304 l 0.424,0.174 c -5.168,-7.416 -5.356,-17.585 0.257,-25.313 2.68,-3.687 6.294,-6.272 10.284,-7.706 9.343,-0.181 18.722,-3.092 26.855,-9.002 21.126,-15.357 25.808,-44.937 10.458,-66.072 z"
   id="path108"
   style="fill:url(#SVGID_4_)"
   inkscape:connector-curvature="0" />
		</g>
	</g>
</g>
</svg>